<svg xmlns="http://www.w3.org/2000/svg" viewBox="0 0 1400 875" role="img" aria-label="Automation workflow cover"><defs><linearGradient id="bg" x1="0" x2="1" y1="0" y2="1"><stop offset="0" stop-color="#120915"/><stop offset=".55" stop-color="#111827"/><stop offset="1" stop-color="#2b123f"/></linearGradient><radialGradient id="g" cx="68%" cy="18%" r="75%"><stop offset="0" stop-color="#c084fc" stop-opacity=".48"/><stop offset="1" stop-color="#c084fc" stop-opacity="0"/></radialGradient><style>.t{font-family:Inter,Arial,sans-serif}.b{font-weight:900}.m{font-weight:600}</style></defs><rect width="1400" height="875" fill="url(#bg)"/><rect width="1400" height="875" fill="url(#g)"/><g stroke="#c084fc" stroke-width="4" fill="none" opacity=".55"><path d="M260 265H520M520 265v120M520 385H780M780 385v120M780 505h260"/><circle cx="260" cy="265" r="54" fill="rgba(192,132,252,.16)"/><circle cx="520" cy="265" r="54" fill="rgba(255,255,255,.08)"/><circle cx="520" cy="385" r="54" fill="rgba(192,132,252,.16)"/><circle cx="780" cy="385" r="54" fill="rgba(255,255,255,.08)"/><circle cx="780" cy="505" r="54" fill="rgba(192,132,252,.16)"/><circle cx="1040" cy="505" r="54" fill="rgba(255,255,255,.08)"/></g><g transform="translate(840 145)"><rect width="360" height="220" rx="34" fill="rgba(255,255,255,.07)" stroke="rgba(255,255,255,.16)"/><rect x="38" y="45" width="180" height="16" rx="8" fill="#c084fc"/><rect x="38" y="95" width="285" height="18" rx="9" fill="rgba(255,255,255,.18)"/><rect x="38" y="137" width="230" height="18" rx="9" fill="rgba(255,255,255,.12)"/></g><text x="110" y="650" class="t b" font-size="78" fill="#fff">Lead Gen</text><text x="110" y="728" class="t b" font-size="78" fill="#c084fc">Automation</text><text x="110" y="780" class="t m" font-size="24" fill="rgba(255,255,255,.68)">n8n · Systems · Growth</text></svg>