<svg xmlns="http://www.w3.org/2000/svg" viewBox="0 0 1400 875" role="img" aria-label="Backend database cover"><defs><linearGradient id="bg" x1="0" x2="1" y1="0" y2="1"><stop offset="0" stop-color="#06121a"/><stop offset=".6" stop-color="#101827"/><stop offset="1" stop-color="#002b1e"/></linearGradient><radialGradient id="g" cx="72%" cy="30%" r="70%"><stop offset="0" stop-color="#34d399" stop-opacity=".4"/><stop offset="1" stop-color="#34d399" stop-opacity="0"/></radialGradient><style>.t{font-family:Inter,Arial,sans-serif}.b{font-weight:900}.m{font-weight:600}</style></defs><rect width="1400" height="875" fill="url(#bg)"/><rect width="1400" height="875" fill="url(#g)"/><g transform="translate(805 155)"><ellipse cx="190" cy="62" rx="190" ry="62" fill="rgba(52,211,153,.22)" stroke="#34d399" stroke-width="3"/><path d="M0 62v305c0 35 85 62 190 62s190-27 190-62V62" fill="rgba(255,255,255,.06)" stroke="rgba(255,255,255,.18)" stroke-width="3"/><ellipse cx="190" cy="165" rx="190" ry="62" fill="none" stroke="rgba(52,211,153,.55)" stroke-width="3"/><ellipse cx="190" cy="268" rx="190" ry="62" fill="none" stroke="rgba(52,211,153,.35)" stroke-width="3"/><ellipse cx="190" cy="367" rx="190" ry="62" fill="none" stroke="rgba(52,211,153,.28)" stroke-width="3"/></g><g opacity=".38" stroke="#34d399" stroke-width="3" fill="none"><path d="M145 275h390v260h-390z"/><path d="M145 340h390M145 405h390M145 470h390M275 275v260M405 275v260"/></g><text x="110" y="650" class="t b" font-size="74" fill="#fff">Prisma +</text><text x="110" y="725" class="t b" font-size="74" fill="#34d399">PostgreSQL</text><text x="110" y="777" class="t m" font-size="24" fill="rgba(255,255,255,.68)">Backend · Database · Production</text></svg>