<svg xmlns="http://www.w3.org/2000/svg" viewBox="0 0 1400 875" role="img" aria-label="Freelance outreach lessons cover"><defs><linearGradient id="bg" x1="0" x2="1" y1="0" y2="1"><stop offset="0" stop-color="#08111f"/><stop offset=".58" stop-color="#111827"/><stop offset="1" stop-color="#1e293b"/></linearGradient><radialGradient id="g" cx="78%" cy="20%" r="75%"><stop offset="0" stop-color="#38bdf8" stop-opacity=".42"/><stop offset="1" stop-color="#38bdf8" stop-opacity="0"/></radialGradient><style>.t{font-family:Inter,Arial,sans-serif}.b{font-weight:900}.m{font-weight:600}</style></defs><rect width="1400" height="875" fill="url(#bg)"/><rect width="1400" height="875" fill="url(#g)"/><g transform="translate(780 150)"><rect width="430" height="505" rx="38" fill="rgba(255,255,255,.07)" stroke="rgba(255,255,255,.16)"/><circle cx="88" cy="92" r="38" fill="rgba(56,189,248,.24)"/><rect x="148" y="67" width="210" height="18" rx="9" fill="#38bdf8"/><rect x="148" y="105" width="160" height="14" rx="7" fill="rgba(255,255,255,.22)"/><rect x="58" y="180" width="310" height="56" rx="18" fill="rgba(255,255,255,.09)"/><rect x="58" y="260" width="250" height="56" rx="18" fill="rgba(56,189,248,.16)"/><rect x="58" y="340" width="335" height="56" rx="18" fill="rgba(255,255,255,.09)"/></g><g opacity=".4" stroke="#38bdf8" stroke-width="3"><path d="M140 330 C310 190 430 410 610 270" fill="none"/><path d="M180 500 C340 420 435 610 650 475" fill="none"/><circle cx="140" cy="330" r="10" fill="#38bdf8"/><circle cx="610" cy="270" r="10" fill="#38bdf8"/><circle cx="650" cy="475" r="10" fill="#38bdf8"/></g><text x="110" y="635" class="t b" font-size="72" fill="#fff">Freelance</text><text x="110" y="708" class="t b" font-size="72" fill="#38bdf8">Outreach</text><text x="110" y="760" class="t m" font-size="24" fill="rgba(255,255,255,.68)">Career · Sales · Learning</text></svg>