<svg xmlns="http://www.w3.org/2000/svg" viewBox="0 0 1400 875" role="img" aria-label="Engineering signal bot cover"><defs><linearGradient id="bg" x1="0" x2="1" y1="0" y2="1"><stop offset="0" stop-color="#050816"/><stop offset="0.55" stop-color="#111827"/><stop offset="1" stop-color="#203000"/></linearGradient><radialGradient id="glow" cx="75%" cy="20%" r="70%"><stop offset="0" stop-color="#e6ff00" stop-opacity="0.42"/><stop offset="1" stop-color="#e6ff00" stop-opacity="0"/></radialGradient><filter id="blur"><feGaussianBlur stdDeviation="18"/></filter><style>.t{font-family:Inter,Arial,sans-serif}.b{font-weight:900}.m{font-weight:600}</style></defs><rect width="1400" height="875" fill="url(#bg)"/><rect width="1400" height="875" fill="url(#glow)"/><g opacity=".26" stroke="#e6ff00" stroke-width="2"><path d="M120 650 C260 540 360 610 500 480 S760 360 920 420 1130 360 1280 210" fill="none"/><path d="M120 720 C280 610 390 670 540 570 S760 520 910 560 1110 480 1280 390" fill="none"/></g><g transform="translate(150 145)"><rect width="520" height="360" rx="34" fill="rgba(255,255,255,.06)" stroke="rgba(255,255,255,.16)"/><rect x="40" y="44" width="110" height="18" rx="9" fill="#e6ff00"/><rect x="40" y="94" width="420" height="20" rx="10" fill="rgba(255,255,255,.18)"/><rect x="40" y="140" width="345" height="20" rx="10" fill="rgba(255,255,255,.12)"/><rect x="40" y="215" width="90" height="90" rx="22" fill="rgba(230,255,0,.14)"/><rect x="155" y="215" width="90" height="90" rx="22" fill="rgba(255,255,255,.08)"/><rect x="270" y="215" width="90" height="90" rx="22" fill="rgba(255,255,255,.08)"/></g><circle cx="1010" cy="300" r="130" fill="#e6ff00" opacity=".16" filter="url(#blur)"/><g transform="translate(930 245)"><circle cx="96" cy="96" r="88" fill="rgba(0,0,0,.42)" stroke="#e6ff00" stroke-width="3"/><path d="M55 102 L88 126 L144 66" fill="none" stroke="#e6ff00" stroke-width="16" stroke-linecap="round" stroke-linejoin="round"/></g><text x="120" y="690" class="t b" font-size="76" fill="#fff">Multi-Pipeline</text><text x="120" y="765" class="t b" font-size="76" fill="#e6ff00">Signal Bot</text><text x="120" y="815" class="t m" font-size="24" fill="rgba(255,255,255,.68)">Engineering · Python · Automation</text></svg>