<svg xmlns="http://www.w3.org/2000/svg" viewBox="0 0 1400 875" role="img" aria-label="Studio shipping process cover"><defs><linearGradient id="bg" x1="0" x2="1" y1="0" y2="1"><stop offset="0" stop-color="#070707"/><stop offset=".55" stop-color="#171717"/><stop offset="1" stop-color="#302100"/></linearGradient><radialGradient id="g" cx="20%" cy="18%" r="70%"><stop offset="0" stop-color="#facc15" stop-opacity=".46"/><stop offset="1" stop-color="#facc15" stop-opacity="0"/></radialGradient><style>.t{font-family:Inter,Arial,sans-serif}.b{font-weight:900}.m{font-weight:600}</style></defs><rect width="1400" height="875" fill="url(#bg)"/><rect width="1400" height="875" fill="url(#g)"/><g transform="translate(775 145)"><rect width="430" height="500" rx="38" fill="rgba(255,255,255,.07)" stroke="rgba(255,255,255,.16)"/><rect x="48" y="58" width="160" height="18" rx="9" fill="#facc15"/><rect x="48" y="116" width="330" height="22" rx="11" fill="rgba(255,255,255,.18)"/><rect x="48" y="170" width="250" height="22" rx="11" fill="rgba(255,255,255,.12)"/><g fill="rgba(250,204,21,.18)"><rect x="48" y="250" width="90" height="90" rx="24"/><rect x="170" y="250" width="90" height="90" rx="24"/><rect x="292" y="250" width="90" height="90" rx="24"/></g><path d="M93 385 H338" stroke="#facc15" stroke-width="10" stroke-linecap="round"/><path d="M93 430 H260" stroke="rgba(255,255,255,.22)" stroke-width="10" stroke-linecap="round"/></g><g opacity=".42" stroke="#facc15" stroke-width="3" fill="none"><path d="M160 270h300m-240 75h360m-300 75h280"/><circle cx="160" cy="270" r="10" fill="#facc15"/><circle cx="220" cy="345" r="10" fill="#facc15"/><circle cx="280" cy="420" r="10" fill="#facc15"/></g><text x="120" y="650" class="t b" font-size="78" fill="#fff">Shipping Fast</text><text x="120" y="728" class="t b" font-size="78" fill="#facc15">As a Studio</text><text x="120" y="780" class="t m" font-size="24" fill="rgba(255,255,255,.68)">Process · Systems · Delivery</text></svg>