<svg xmlns="http://www.w3.org/2000/svg" viewBox="0 0 2048 913" role="img" aria-label="MyAirBoard project proof preview">
  <defs>
    <linearGradient id="bg" x1="0" x2="1" y1="0" y2="1">
      <stop offset="0" stop-color="#ffffff"/>
      <stop offset="1" stop-color="#f6f7fb"/>
    </linearGradient>
    <filter id="shadow" x="-20%" y="-20%" width="140%" height="140%">
      <feDropShadow dx="0" dy="22" stdDeviation="22" flood-color="#0f172a" flood-opacity="0.16"/>
    </filter>
    <style>
      .dark{fill:#101827}.muted{fill:#6b7280}.brand{fill:#8b5cf6}.soft{fill:#f4f4f5}.line{stroke:#e5e7eb;stroke-width:2}.txt{font-family:Inter,Arial,sans-serif}.bold{font-weight:800}.med{font-weight:600}
    </style>
  </defs>
  <rect width="2048" height="913" fill="url(#bg)"/>
  <rect x="0" y="0" width="2048" height="82" fill="#fff"/>
  <line x1="0" y1="82" x2="2048" y2="82" class="line"/>
  <rect x="46" y="25" width="28" height="28" rx="8" fill="none" stroke="#8b5cf6" stroke-width="5"/>
  <circle cx="60" cy="39" r="7" class="brand"/>
  <text x="88" y="50" class="txt bold dark" font-size="29">airboard</text>
  <text x="215" y="50" class="txt med muted" font-size="21">Home</text>
  <text x="305" y="50" class="txt med muted" font-size="21">Explore⌄</text>
  <text x="430" y="50" class="txt med muted" font-size="21">Pricing</text>
  <text x="1720" y="50" class="txt med dark" font-size="21">Log in</text>
  <rect x="1810" y="17" width="160" height="48" rx="11" fill="#000"/>
  <text x="1843" y="48" fill="#fff" class="txt bold" font-size="19">Join airboard</text>

  <text x="500" y="220" text-anchor="middle" class="txt bold dark" font-size="64"></text>
  <text x="1024" y="200" text-anchor="middle" class="txt bold dark" font-size="64">A single, intuitive hub for effortless</text>
  <text x="1024" y="275" text-anchor="middle" class="txt bold dark" font-size="64">hosting.</text>
  <text x="1024" y="340" text-anchor="middle" class="txt med muted" font-size="28">My airboard centralizes everything you need to manage your rentals</text>
  <text x="1024" y="382" text-anchor="middle" class="txt med muted" font-size="28">seamlessly, built for modern hosts and agencies.</text>
  <rect x="840" y="430" width="285" height="64" rx="12" fill="#000"/>
  <text x="982" y="470" text-anchor="middle" fill="#fff" class="txt bold" font-size="22">Discover our offers</text>
  <text x="1024" y="535" text-anchor="middle" class="txt med muted" font-size="21">From Rs2500/month. Try it free for 7 days.</text>

  <g filter="url(#shadow)">
    <rect x="200" y="462" width="505" height="390" rx="18" fill="#d9c4ad"/>
    <rect x="300" y="520" width="310" height="205" rx="15" fill="#151515" transform="rotate(8 455 622)"/>
    <rect x="330" y="545" width="250" height="145" rx="7" fill="#f9fafb" transform="rotate(8 455 622)"/>
    <rect x="356" y="570" width="150" height="10" rx="5" fill="#8b5cf6" transform="rotate(8 455 622)"/>
    <rect x="356" y="598" width="190" height="10" rx="5" fill="#8b5cf6" transform="rotate(8 455 622)"/>
    <rect x="356" y="626" width="130" height="10" rx="5" fill="#10b981" transform="rotate(8 455 622)"/>
  </g>

  <g filter="url(#shadow)">
    <rect x="1265" y="505" width="650" height="430" rx="45" fill="#111"/>
    <rect x="1298" y="545" width="590" height="365" rx="16" fill="#f4f4f5"/>
    <rect x="1298" y="545" width="145" height="365" fill="#fff"/>
    <text x="1370" y="600" class="txt bold dark" font-size="20">airboard</text>
    <text x="1515" y="700" class="txt bold dark" font-size="30">Hello, Jahanzaib!</text>
    <text x="1515" y="735" class="txt med muted" font-size="18">Welcome to your airboard, one place for all your Properties</text>
    <rect x="1515" y="790" width="155" height="88" rx="12" fill="#fff"/>
    <rect x="1690" y="790" width="155" height="88" rx="12" fill="#fff"/>
    <text x="1535" y="822" class="txt med muted" font-size="16">Bookings</text>
    <text x="1535" y="858" class="txt bold dark" font-size="28">6</text>
    <text x="1710" y="822" class="txt med muted" font-size="16">Revenue</text>
    <text x="1710" y="858" class="txt bold dark" font-size="28">Rs 32,700.00</text>
  </g>

  <g filter="url(#shadow)">
    <rect x="860" y="585" width="310" height="405" rx="54" fill="#111"/>
    <rect x="887" y="620" width="256" height="350" rx="32" fill="#f8fafc"/>
    <text x="918" y="745" class="txt bold dark" font-size="29">Hello, Jahanzaib!</text>
    <rect x="920" y="800" width="96" height="70" rx="12" fill="#fff"/>
    <rect x="1030" y="800" width="96" height="70" rx="12" fill="#fff"/>
    <text x="935" y="833" class="txt med muted" font-size="15">Revenue</text>
    <text x="935" y="860" class="txt bold dark" font-size="20">Rs 32,700</text>
  </g>

  <rect x="350" y="333" width="195" height="92" rx="14" fill="#fff" stroke="#e5e7eb" filter="url(#shadow)" transform="rotate(2 447 379)"/>
  <text x="372" y="365" class="txt med muted" font-size="16">Bookings</text>
  <text x="372" y="395" class="txt bold dark" font-size="19">6 Completed</text>
  <rect x="1440" y="380" width="245" height="95" rx="14" fill="#fff" stroke="#e5e7eb" filter="url(#shadow)" transform="rotate(-5 1562 427)"/>
  <text x="1465" y="413" class="txt med muted" font-size="16">Revenue</text>
  <text x="1465" y="445" class="txt bold dark" font-size="22">Rs 32,700.00</text>
</svg>
